<?xml version="1.0" encoding="UTF-8" standalone="no"?>
<svg width="1920" height="1080" viewBox="0 0 1920 1080" fill="none" xmlns="http://www.w3.org/2000/svg">
  <rect width="1920" height="1080" fill="#0a0a1a" />
  
  <!-- Stars -->
  <g opacity="0.8">
    <circle cx="120" cy="340" r="1" fill="white" />
    <circle cx="580" cy="120" r="1.5" fill="white" />
    <circle cx="820" cy="540" r="1" fill="white" />
    <circle cx="1120" cy="240" r="1" fill="white" />
    <circle cx="1420" cy="640" r="1.5" fill="white" />
    <circle cx="1720" cy="340" r="1" fill="white" />
    <circle cx="220" cy="740" r="1" fill="white" />
    <circle cx="520" cy="840" r="1.5" fill="white" />
    <circle cx="920" cy="940" r="1" fill="white" />
    <circle cx="1320" cy="840" r="1" fill="white" />
    <circle cx="1620" cy="740" r="1.5" fill="white" />
    <circle cx="1820" cy="940" r="1" fill="white" />
    
    <!-- More stars -->
    <circle cx="250" cy="150" r="0.8" fill="white" />
    <circle cx="450" cy="350" r="0.8" fill="white" />
    <circle cx="650" cy="250" r="0.8" fill="white" />
    <circle cx="850" cy="150" r="0.8" fill="white" />
    <circle cx="1050" cy="350" r="0.8" fill="white" />
    <circle cx="1250" cy="150" r="0.8" fill="white" />
    <circle cx="1450" cy="250" r="0.8" fill="white" />
    <circle cx="1650" cy="150" r="0.8" fill="white" />
    <circle cx="1850" cy="350" r="0.8" fill="white" />
    
    <circle cx="150" cy="550" r="0.8" fill="white" />
    <circle cx="350" cy="650" r="0.8" fill="white" />
    <circle cx="550" cy="550" r="0.8" fill="white" />
    <circle cx="750" cy="650" r="0.8" fill="white" />
    <circle cx="950" cy="550" r="0.8" fill="white" />
    <circle cx="1150" cy="650" r="0.8" fill="white" />
    <circle cx="1350" cy="550" r="0.8" fill="white" />
    <circle cx="1550" cy="650" r="0.8" fill="white" />
    <circle cx="1750" cy="550" r="0.8" fill="white" />
    
    <circle cx="250" cy="850" r="0.8" fill="white" />
    <circle cx="450" cy="950" r="0.8" fill="white" />
    <circle cx="650" cy="850" r="0.8" fill="white" />
    <circle cx="850" cy="950" r="0.8" fill="white" />
    <circle cx="1050" cy="850" r="0.8" fill="white" />
    <circle cx="1250" cy="950" r="0.8" fill="white" />
    <circle cx="1450" cy="850" r="0.8" fill="white" />
    <circle cx="1650" cy="950" r="0.8" fill="white" />
    <circle cx="1850" cy="850" r="0.8" fill="white" />
  </g>
  
  <!-- Nebula gradients -->
  <circle cx="400" cy="300" r="300" fill="url(#nebula1)" opacity="0.2" />
  <circle cx="1600" cy="800" r="400" fill="url(#nebula2)" opacity="0.2" />
  
  <defs>
    <radialGradient id="nebula1" cx="400" cy="300" r="300" gradientUnits="userSpaceOnUse">
      <stop offset="0" stop-color="#7e3af2" />
      <stop offset="1" stop-color="#7e3af2" stop-opacity="0" />
    </radialGradient>
    
    <radialGradient id="nebula2" cx="1600" cy="800" r="400" gradientUnits="userSpaceOnUse">
      <stop offset="0" stop-color="#00d4ff" />
      <stop offset="1" stop-color="#00d4ff" stop-opacity="0" />
    </radialGradient>
  </defs>
</svg>
